Coordinates
version=1
nRows=13
nColumns=36
inDegrees=yes

Units are S.I. units (second, meters, Newtons, ...)
If the header above contains a line with 'inDegrees', this indicates whether rotational values are in degrees (yes) or radians (no).

endheader
time	pelvis_tilt	pelvis_list	pelvis_rotation	pelvis_tx	pelvis_ty	pelvis_tz	hip_flexion_r	hip_adduction_r	hip_rotation_r	knee_angle_r	knee_angle_r_beta	ankle_angle_r	subtalar_angle_r	mtp_angle_r	hip_flexion_l	hip_adduction_l	hip_rotation_l	knee_angle_l	knee_angle_l_beta	ankle_angle_l	subtalar_angle_l	mtp_angle_l	lumbar_extension	lumbar_bending	lumbar_rotation	arm_flex_r	arm_add_r	arm_rot_r	elbow_flex_r	pro_sup_r	arm_flex_l	arm_add_l	arm_rot_l	elbow_flex_l	pro_sup_l
      3.48333330	      5.35919997	     -5.59565557	     -4.14041830	      0.60178937	      1.04191270	     -0.11597370	     25.55515237	      0.48107126	      5.16010898	     55.40339812	      0.96697171	     -8.04802523	    -34.03331894	     -7.49999987	     -0.25141041	      0.15086965	     -4.76495652	     12.07656522	      0.21077583	      7.75087692	     -0.27497636	     -7.49999987	     -9.91253002	      7.08848766	     -9.20535114	      2.89925468	     -7.57304300	     16.28337881	     29.23395273	     83.15550177	     12.48948727	    -14.06646995	      7.12482413	     57.95884694	     74.65628134
      3.50000000	      4.59536673	     -5.39366017	     -5.02792668	      0.60137540	      1.04115831	     -0.11468806	     24.78028304	     -1.17965305	      4.72570044	     55.45271420	      0.96783244	     -7.88997375	    -34.14031339	     -7.49999987	      0.70851981	      0.34304777	     -4.74829265	     12.56754767	      0.21934509	      8.65954618	     -0.65992907	     -7.49999987	     -9.05915380	      6.68439821	     -8.89992779	      3.03696412	     -7.31820110	     15.93402081	     28.30891742	     82.07633027	     11.01561370	    -14.87773623	      6.01573551	     58.41632937	     74.75381107
      3.51666670	      4.16247744	     -5.20512573	     -5.76598247	      0.60190841	      1.04071572	     -0.11330015	     23.46699514	     -2.92662441	      3.89115507	     54.83650385	      0.95707754	     -8.54999111	    -34.24460207	     -7.49999987	      1.34501792	      0.53981074	     -4.66910534	     13.17806010	      0.23000054	      9.15486795	     -1.13052930	     -7.49999987	     -8.51547516	      6.27692766	     -8.46536679	      2.86874978	     -7.30867144	     15.93779119	     28.30738642	     80.79049762	     10.04913871	    -15.60419629	      5.42879234	     58.36258885	     74.48428401
      3.53333330	      3.59623579	     -5.25118856	     -6.45927520	      0.60204671	      1.04530417	     -0.11081217	     21.71584274	     -4.31885672	      2.88781882	     52.96360267	      0.92438925	     -9.33277499	    -34.29202746	     -7.49999987	      1.85120309	      0.45094069	     -4.61057714	     13.42189695	      0.23425629	      9.60228050	     -1.54254692	     -7.49999987	     -7.75118585	      6.07801266	     -8.00499036	      2.54385454	     -7.25074680	     15.86394630	     28.03439350	     79.40970032	      9.07003507	    -16.26250275	      4.95758226	     58.26942154	     74.11807092
      3.55000000	      3.24936726	     -5.17494689	     -7.13514989	      0.60702777	      1.04793313	     -0.10980055	     19.45582078	     -5.78821201	      1.70934978	     50.50312916	      0.88144589	    -10.11848983	    -34.32245985	     -7.49999987	      1.94579668	      0.48217493	     -4.81962000	     13.49774007	      0.23558001	      9.68812061	     -1.79723364	     -7.49999987	     -7.06738863	      5.79490419	     -7.72197040	      2.23796805	     -7.20081466	     15.71239396	     27.56458092	     79.39777340	      8.00068372	    -16.93324324	      4.51913531	     57.94538475	     74.41926350
      3.56666670	      2.94892263	     -4.98684942	     -7.87707352	      0.60718566	      1.04192487	     -0.10799277	     17.87973580	     -7.19242168	      0.78652074	     48.52736642	      0.84696232	    -10.16571733	    -34.35425985	     -7.49999987	      2.04107323	      0.68638655	     -4.80530645	     13.35610668	      0.23310804	     10.11659655	     -2.17995871	     -7.49999987	     -6.62462939	      5.35862271	     -7.24380353	      1.91265420	     -7.18683216	     15.39272512	     27.43707991	     78.72365944	      7.11655017	    -17.57369392	      4.02253609	     58.01276602	     74.22926095
      3.58333330	      2.82695435	     -4.73168979	     -8.33924184	      0.60974638	      1.03931619	     -0.10679983	     16.09904607	     -8.59335335	     -0.23485978	     46.60380926	      0.81338992	    -10.00956678	    -34.34105486	     -7.49999987	      1.96376990	      0.93569915	     -4.57536877	     13.22918813	      0.23089289	     10.45765695	     -2.65660526	     -7.49999987	     -6.19291024	      4.81474019	     -7.23147104	      1.78220536	     -6.97062624	     14.72074267	     26.52398041	     78.45732533	      6.14646936	    -18.19801167	      3.19000014	     58.08255758	     74.65970112
      3.60000000	      2.38833863	     -4.50368750	     -8.97816786	      0.61338972	      1.03546358	     -0.10320842	     14.96631619	     -9.57738526	     -0.76037586	     45.06368190	      0.78650962	     -9.41143965	    -34.29933400	     -7.49999987	      2.01285771	      1.12046787	     -4.40104370	     12.79314139	      0.22328244	     11.05612556	     -2.75986431	     -7.49999987	     -5.38678512	      4.25777480	     -7.01534835	      1.36309868	     -6.74202877	     13.66487013	     25.90312972	     77.51526590	      5.00590998	    -18.71595306	      2.00661871	     58.64805994	     75.35670226
      3.61666670	      2.00877159	     -4.30020874	     -9.53560390	      0.61616613	      1.03208899	     -0.10044699	     13.81216541	    -10.36668222	     -1.26314281	     43.60149568	      0.76098966	     -8.79999647	    -34.26929715	     -7.49999987	      2.05597587	      1.23080169	     -4.21963280	     12.38916835	      0.21623178	     11.80657004	     -2.97283288	     -7.49999987	     -4.47571444	      3.79740364	     -6.56199714	      0.74032921	     -6.87336790	     13.51243519	     25.62584994	     77.41224076	      4.31469280	    -19.27436904	      1.73895192	     58.64589970	     75.43366240
      3.63333330	      1.58148997	     -4.14531895	     -9.98519274	      0.61677776	      1.03331416	     -0.09690850	     12.70330308	    -10.89405860	     -1.86307372	     41.78256440	      0.72924332	     -8.58660007	    -34.19989277	     -7.49999987	      2.08982262	      1.29115540	     -3.90610346	     11.85950058	      0.20698733	     12.02943510	     -3.25549982	     -7.49999987	     -3.58507624	      3.36300505	     -6.63687123	      0.47435086	     -6.59014290	     12.29128267	     24.79057694	     76.64539693	      3.22293833	    -19.86667852	      0.70207113	     59.05105276	     75.88532249
      3.65000000	      1.07567129	     -3.91622002	    -10.51978924	      0.61669855	      1.03163996	     -0.09469680	     11.77685437	    -11.29691005	     -2.18965777	     39.78199468	      0.69432679	     -8.15852026	    -34.08703453	     -7.49999987	      2.29197386	      1.37329216	     -3.89758579	     11.41979182	      0.19931297	     12.20458496	     -3.41862292	     -7.49999987	     -2.64144627	      2.89378967	     -6.24763213	     -0.04376390	     -6.63930412	     12.08741167	     24.58779232	     76.48627022	      2.68303518	    -20.47451407	      0.40013931	     59.12848662	     75.95538648
      3.66666670	      0.60573350	     -3.74443842	    -10.93379222	      0.61375557	      1.03444599	     -0.09362458	     11.02170811	    -11.54746798	     -2.68869969	     37.60466329	      0.65632519	     -8.41430369	    -33.92370489	     -7.49999987	      2.73471837	      1.38460609	     -3.70977718	     11.18443441	      0.19520521	     11.99103330	     -3.97216183	     -7.49999987	     -2.09550115	      2.57878462	     -6.35261722	     -0.08821413	     -6.36430527	     10.73485265	     24.09871331	     75.38757348	      1.87636253	    -20.99214716	     -0.71590918	     59.71786640	     76.34462399
      3.68333330	      0.40018449	     -3.61107754	    -11.34437458	      0.61542418	      1.03240561	     -0.09154664	      9.95308539	    -11.75494773	     -3.26603892	     35.19448513	      0.61425964	     -8.51360625	    -33.67812549	     -7.49999987	      2.74412837	      1.38064124	     -3.88066687	     10.76002421	      0.18779785	     12.08989091	     -3.51233696	     -7.49999987	     -1.79298776	      2.27185503	     -5.67505603	     -0.83155487	     -6.31342219	      9.34460628	     24.72300901	     72.81444147	      2.30412847	    -21.58910479	     -0.21041666	     59.30693127	     74.47521366
